<?xml version="1.0" encoding="UTF-8"?>
<svg version="1.1" xmlns="http://www.w3.org/2000/svg" width="780" height="716">
<path d="M0 0 C257.4 0 514.8 0 780 0 C780 236.28 780 472.56 780 716 C522.6 716 265.2 716 0 716 C0 479.72 0 243.44 0 0 Z " fill="#FEFCF9" transform="translate(0,0)"/>
<path d="M0 0 C4.33683703 0.11435879 8.37352989 0.87707281 12.57421875 1.91796875 C13.68168457 2.18915527 13.68168457 2.18915527 14.81152344 2.46582031 C35.59741662 7.74092593 53.99644108 18.54489282 65.49902344 36.94750977 C68.72011745 42.42472553 70.8477647 48.08381299 72.38671875 54.23046875 C72.57621094 54.98457031 72.76570312 55.73867188 72.9609375 56.515625 C75.71184095 74.05578923 72.36392017 91.44874783 62.38671875 106.23046875 C59.0208046 110.5281823 55.25946726 114.39169172 51.38671875 118.23046875 C50.7525 118.89820313 50.11828125 119.5659375 49.46484375 120.25390625 C41.17602348 128.35934554 28.58198273 133.72799798 17.38671875 136.23046875 C16.58878906 136.43285156 15.79085937 136.63523437 14.96875 136.84375 C-3.56521076 140.96552342 -23.94479388 138.29711567 -40.61328125 129.23046875 C-41.6084375 128.71613281 -42.60359375 128.20179688 -43.62890625 127.671875 C-52.01292538 123.11122138 -61.62066691 116.80683463 -64.61328125 107.23046875 C-65.59595914 101.19885961 -64.64929435 96.93375583 -61.0859375 91.9609375 C-57.49655848 87.74317913 -54.20566299 85.98672255 -48.73828125 85.54296875 C-43.54251875 85.7526632 -41.19872642 87.72073356 -37.6015625 91.2890625 C-27.40451966 101.24570354 -13.71645524 105.143154 0.19921875 105.60546875 C12.26590605 105.36989351 22.5974881 101.64507645 31.38671875 93.23046875 C38.78084083 83.60920147 40.38552089 74.19080828 39.38671875 62.23046875 C37.40973836 54.06210667 31.64298569 47.20306725 24.76171875 42.54296875 C18.43718226 38.89749123 11.29638702 36.24678799 4.24609375 34.4140625 C-2.76813566 32.47295891 -2.76813566 32.47295891 -5.18359375 28.921875 C-8.67897403 20.3056404 -8.93951787 10.91564214 -5.61328125 2.23046875 C-3.61328125 0.23046875 -3.61328125 0.23046875 0 0 Z " fill="#1364A1" transform="translate(149.61328125,301.76953125)"/>
<path d="M0 0 C12.87339428 10.34336304 12.87339428 10.34336304 14.9375 18.875 C15.27468403 23.40537006 14.36841807 27.11931499 12 31 C8.03343319 35.3127059 4.64404519 37.75056177 -1.3125 38.3125 C-7.59683588 37.77992916 -11.77507974 33.4044214 -16.5625 29.5625 C-28.80008298 20.34261097 -43.80250276 16.59119377 -59 18 C-69.48351858 20.11836885 -78.97434632 24.42187347 -85.71484375 32.96484375 C-90.96158797 41.27351773 -92.26930587 50.02406278 -90.52734375 59.59765625 C-87.65625439 70.72097849 -81.62161233 77.12159028 -72 83 C-70.37191406 83.95519531 -70.37191406 83.95519531 -68.7109375 84.9296875 C-60.20690926 89.95390648 -52.37525574 95.27132169 -49 105 C-48.29432524 109.87797677 -48.48809452 113.06150661 -50.875 117.4375 C-54.59905075 121.92826708 -54.59905075 121.92826708 -57.07421875 122.37109375 C-74.3303921 122.80959143 -91.57192326 113.40308072 -104 102 C-116.28691499 90.07052254 -124.39305314 73.49398131 -125.16796875 56.265625 C-125.36372823 39.24928492 -121.68607909 25.57602501 -111 12 C-110.41605469 11.23945313 -109.83210938 10.47890625 -109.23046875 9.6953125 C-83.13613488 -22.05737167 -32.10592223 -22.69909151 0 0 Z " fill="#26B899" transform="translate(196,246)"/>
<path d="M0 0 C8.18570831 4.1244592 11.58360539 10.73161362 15.0234375 19.01953125 C17.93235191 28.13412972 16.17664332 37.63573068 12.0234375 46.01953125 C8.31844878 52.44297324 3.32788892 57.27376243 -3.828125 59.62890625 C-12.32724749 61.17420125 -19.68759557 60.6954723 -26.9765625 56.01953125 C-27.6365625 55.35953125 -28.2965625 54.69953125 -28.9765625 54.01953125 C-29.3065625 63.91953125 -29.6365625 73.81953125 -29.9765625 84.01953125 C-34.5965625 84.01953125 -39.2165625 84.01953125 -43.9765625 84.01953125 C-45.73095413 82.26513962 -45.09639213 79.96455669 -45.10098267 77.62782288 C-45.09738739 76.85530685 -45.09379211 76.08279083 -45.09008789 75.28686523 C-45.09023392 74.47717285 -45.09037994 73.66748047 -45.0905304 72.83325195 C-45.08983104 70.14401617 -45.0820376 67.45484876 -45.07421875 64.765625 C-45.07235465 62.90617409 -45.07093071 61.04672269 -45.06993103 59.18727112 C-45.06610521 54.28324029 -45.05627438 49.37923889 -45.04522705 44.47521973 C-45.03501431 39.47502033 -45.03043371 34.47481619 -45.02539062 29.47460938 C-45.01465217 19.65623704 -44.99757498 9.83788659 -44.9765625 0.01953125 C-40.3565625 0.01953125 -35.7365625 0.01953125 -30.9765625 0.01953125 C-30.6465625 1.66953125 -30.3165625 3.31953125 -29.9765625 5.01953125 C-29.43386719 4.59800781 -28.89117188 4.17648437 -28.33203125 3.7421875 C-27.61660156 3.19433594 -26.90117188 2.64648438 -26.1640625 2.08203125 C-25.45636719 1.53675781 -24.74867188 0.99148438 -24.01953125 0.4296875 C-17.43740997 -4.11361227 -7.11917658 -2.81425933 0 0 Z " fill="#24343A" transform="translate(755.9765625,338.98046875)"/>
<path d="M0 0 C4.95 0 9.9 0 15 0 C16.27385499 3.93654475 17.54415239 7.87418071 18.8125 11.8125 C19.16892578 12.91271484 19.52535156 14.01292969 19.89257812 15.14648438 C22.11343791 22.05356206 24.1609053 28.9814501 26 36 C28.0031734 32.3798071 29.17516502 28.54562304 30.3828125 24.609375 C30.60194305 23.90476135 30.82107361 23.20014771 31.04684448 22.47418213 C31.7427896 20.23377383 32.43395638 17.99192441 33.125 15.75 C33.59734124 14.2264648 34.06999403 12.70302616 34.54296875 11.1796875 C35.69951185 7.45440129 36.84957643 3.72720257 38 0 C42.95 0 47.9 0 53 0 C54.43068847 4.60630592 55.85697051 9.2135269 57.27246094 13.82446289 C57.75497012 15.39164625 58.23997105 16.95806475 58.72753906 18.52368164 C59.42914554 20.77812939 60.12165592 23.03520317 60.8125 25.29296875 C61.03123779 25.98899704 61.24997559 26.68502533 61.4753418 27.40214539 C62.57615639 31.03275707 63.25733006 34.20116496 63 38 C63.66 38 64.32 38 65 38 C65.0721875 36.97648437 65.144375 35.95296875 65.21875 34.8984375 C66.05152358 28.24504576 68.4038704 21.96502554 70.5 15.625 C70.92119787 14.32963012 71.34177581 13.0340585 71.76171875 11.73828125 C74.82515672 2.34968655 74.82515672 2.34968655 76 0 C80.95 0 85.9 0 91 0 C89.57944458 7.08309168 87.50954387 13.75007314 85.12109375 20.5625 C84.56289696 22.17125 84.56289696 22.17125 83.99342346 23.8125 C83.21163154 26.06219364 82.42740807 28.31104364 81.64086914 30.55908203 C80.43219956 34.0151561 79.23214014 37.47413285 78.03320312 40.93359375 C77.27133582 43.12257079 76.50898347 45.31137908 75.74609375 47.5 C75.20546547 49.05763062 75.20546547 49.05763062 74.65391541 50.64672852 C74.32009354 51.59862061 73.98627167 52.5505127 73.64233398 53.53125 C73.34858383 54.37236328 73.05483368 55.21347656 72.75218201 56.08007812 C72 58 72 58 71 59 C66.38 59 61.76 59 57 59 C53.04 47.45 49.08 35.9 45 24 C39.555 41.325 39.555 41.325 34 59 C29.05 59 24.1 59 19 59 C18.60208252 57.83130371 18.20416504 56.66260742 17.79418945 55.45849609 C16.29490577 51.0559597 14.79424997 46.65389198 13.29321289 42.25195312 C12.64799105 40.35917389 12.0031244 38.46627352 11.35864258 36.57324219 C10.42366071 33.82714158 9.48742384 31.08147207 8.55078125 28.3359375 C8.24665314 27.44275818 7.94252502 26.54957886 7.62918091 25.6293335 C6.26366085 21.63293451 4.88296728 17.64519617 3.42724609 13.68066406 C3.1912822 13.0363443 2.9553183 12.39202454 2.71220398 11.72817993 C2.09325085 10.05036381 1.4653519 8.37585515 0.83666992 6.70166016 C0 4 0 4 0 0 Z " fill="#223037" transform="translate(555,339)"/>
<path d="M0 0 C5.96089976 4.0877698 9.28495887 8.32552388 12 15 C12 15.66 12 16.32 12 17 C1.02439024 19.73170732 1.02439024 19.73170732 -3 19 C-5.625 16.125 -5.625 16.125 -8 13 C-12.58500128 10.03905965 -17.74328473 10.26126043 -23 11 C-26.35801159 12.77367957 -26.35801159 12.77367957 -28 16 C-28.65926144 19.02660936 -28.45593246 20.80847277 -28 24 C-25.22857557 27.4702984 -22.59631804 28.78798555 -18.421875 30.1484375 C-17.34292969 30.51453125 -16.26398438 30.880625 -15.15234375 31.2578125 C-12.9005332 31.99721298 -10.64793803 32.73422858 -8.39453125 33.46875 C-0.3718625 36.19702974 6.867558 39.18911942 11.5 46.625 C14.11753793 52.77562724 14.12566274 59.45366428 12.1171875 65.78125 C8.86908139 72.92278132 4.35825763 77.85942018 -2.9375 80.875 C-12.53816241 83.63683439 -24.95404473 83.31997146 -34 79 C-39.39600656 75.84835015 -44.26561623 71.7269497 -47 66 C-47.38881468 64.01004164 -47.7318416 62.00977665 -48 60 C-46.06441401 59.32779649 -44.12645628 58.66241923 -42.1875 58 C-41.10855469 57.62875 -40.02960938 57.2575 -38.91796875 56.875 C-36 56 -36 56 -33 56 C-32.5875 56.9075 -32.175 57.815 -31.75 58.75 C-29.30618441 63.28851467 -27.55991423 65.41135312 -22.6875 67.25 C-16.19434428 68.57064184 -11.70009796 68.62733506 -6 65 C-3.21950566 62.48858576 -3.01908825 61.34995129 -2.8125 57.5625 C-4.24386459 53.26840622 -5.44356648 52.30039327 -9.296875 50.1796875 C-13.22454863 48.46558716 -17.2707683 47.17181262 -21.34790039 45.87011719 C-30.12362572 43.04836878 -37.92661961 40.08998495 -43 32 C-46.04886202 25.7445762 -46.15349671 18.26862854 -44.34765625 11.5859375 C-41.3198412 4.85457185 -36.00623757 0.70982585 -29.4375 -2.375 C-19.72230221 -5.89435628 -8.92207125 -5.25101069 0 0 Z " fill="#212E35" transform="translate(322,317)"/>
<path d="M0 0 C7.24276549 3.77423332 10.90021742 8.47119638 13.40625 16.25390625 C13.40625 16.91390625 13.40625 17.57390625 13.40625 18.25390625 C11.84508181 18.59342244 10.28223662 18.92523169 8.71875 19.25390625 C7.84863281 19.43953125 6.97851562 19.62515625 6.08203125 19.81640625 C3.42926866 20.25014261 1.08517523 20.49912739 -1.59375 20.25390625 C-2.65146739 18.62325861 -3.64648046 16.95109752 -4.59375 15.25390625 C-9.92735654 11.31943241 -15.19654565 11.33497082 -21.59375 12.25390625 C-25.01626492 14.00790548 -25.01626492 14.00790548 -26.59375 17.25390625 C-27.31451388 20.33853134 -27.11357816 21.97898884 -26.59375 25.25390625 C-21.73046804 31.0898446 -12.4731663 32.98647621 -5.46875 35.19140625 C2.62792357 37.86258097 8.40915168 41.28825404 13.40625 48.25390625 C15.62934143 54.92318054 15.5651871 63.92078037 12.63671875 70.41015625 C8.7326627 76.26004341 2.94899721 81.00968157 -3.8828125 82.85546875 C-15.3167952 84.53596765 -27.10522031 84.23983463 -36.90625 77.56640625 C-42.29899681 73.17797666 -45.46520023 68.10836115 -46.59375 61.25390625 C-44.6366632 60.58358906 -42.67803887 59.91775942 -40.71875 59.25390625 C-39.62820313 58.88265625 -38.53765625 58.51140625 -37.4140625 58.12890625 C-34.59375 57.25390625 -34.59375 57.25390625 -32.59375 57.25390625 C-31.66885999 58.4674562 -30.80325122 59.72651332 -29.96875 61.00390625 C-26.38671902 65.90746322 -22.56785058 68.60400634 -16.515625 69.59375 C-10.85489855 69.86382283 -6.81045202 68.25608872 -2.65625 64.50390625 C-0.96900037 60.93090704 -1.35401877 58.97309995 -2.59375 55.25390625 C-6.65586693 51.02501619 -12.4712078 49.54638954 -17.90625 47.81640625 C-27.85531924 44.64466918 -35.97649334 41.61759497 -41.5703125 32.40234375 C-44.46273551 26.33046338 -44.55937327 19.40413069 -42.40625 13.06640625 C-38.84239983 4.82704621 -33.63024957 1.67282386 -25.59375 -1.74609375 C-17.34605974 -4.49532384 -7.89742489 -3.33317786 0 0 Z " fill="#212F36" transform="translate(537.59375,315.74609375)"/>
<path d="M0 0 C5.05112509 3.2841916 8.26923828 7.60951492 10.0546875 13.3359375 C10.32834257 16.70858045 10.28726991 20.06745647 10.25 23.44921875 C10.2471701 24.41876999 10.24434021 25.38832123 10.24142456 26.38725281 C10.23025741 29.47444155 10.20515902 32.56133689 10.1796875 35.6484375 C10.16965323 37.74543851 10.16052816 39.84244408 10.15234375 41.93945312 C10.13032938 47.0717271 10.09582321 52.2037826 10.0546875 57.3359375 C5.4346875 57.3359375 0.8146875 57.3359375 -3.9453125 57.3359375 C-4.4403125 55.3559375 -4.4403125 55.3559375 -4.9453125 53.3359375 C-6.0590625 54.2640625 -6.0590625 54.2640625 -7.1953125 55.2109375 C-13.94411706 60.42592285 -20.72292571 60.01969388 -28.9453125 59.3359375 C-34.65890097 57.89459419 -37.84913859 54.86875813 -41.03515625 50.01953125 C-43.4317225 45.58639798 -43.39172361 41.23803689 -42.9453125 36.3359375 C-41.12220566 30.86661698 -37.72147775 27.40245269 -32.9453125 24.3359375 C-24.68511781 20.39759467 -13.70390819 19.66089842 -4.9453125 22.3359375 C-5.16245677 16.63984605 -5.16245677 16.63984605 -7.8828125 11.8359375 C-12.27500796 9.68465809 -16.14108954 9.67901739 -20.9453125 10.3359375 C-24.73052746 11.94666727 -26.70456187 13.91584443 -28.9453125 17.3359375 C-32.53922364 16.00105622 -35.70021946 14.37571027 -38.9453125 12.3359375 C-38.52411754 7.56239459 -36.46614109 4.44756567 -32.9453125 1.3359375 C-24.02287468 -5.06536999 -9.63377618 -4.57361091 0 0 Z " fill="#233238" transform="translate(689.9453125,339.6640625)"/>
<path d="M0 0 C4.95 0 9.9 0 15 0 C15.33 15.18 15.66 30.36 16 46 C21.97579857 38.85225102 21.97579857 38.85225102 27.3984375 31.30078125 C32.51743706 23.56158231 32.51743706 23.56158231 37.29882812 22.47998047 C42.9139024 21.96708562 48.40929547 22.38008615 54 23 C52.66000502 26.006818 51.20154709 27.99762609 48.8125 30.25 C42.85424557 36.04722053 37.78054682 42.21260246 33 49 C39.46699031 58.22082213 45.96311106 67.41066116 52.6965332 76.43969727 C56 80.89506698 56 80.89506698 56 82 C53.33069912 82.39545198 50.68186922 82.71607901 48 83 C47.20883789 83.11690186 46.41767578 83.23380371 45.60253906 83.35424805 C41.77692281 83.69606481 39.10296779 83.90472464 36.03857422 81.39111328 C34.22124705 79.11416088 32.65978785 76.78839533 31.125 74.3125 C30.04482047 72.68322921 28.96410517 71.0543135 27.8828125 69.42578125 C27.38942383 68.65830566 26.89603516 67.89083008 26.38769531 67.10009766 C24.7390631 64.6051057 22.92706801 62.28548404 21 60 C17.2810241 62.89212252 17.2810241 62.89212252 15.49365234 67.10009766 C15.28543698 69.51306547 15.20470281 71.89072727 15.1875 74.3125 C15.16236328 75.14845703 15.13722656 75.98441406 15.11132812 76.84570312 C15.0527301 78.89663409 15.02343507 80.94836593 15 83 C10.05 83 5.1 83 0 83 C0 55.61 0 28.22 0 0 Z " fill="#1F2C33" transform="translate(345,315)"/>
<path d="M0 0 C5.28 0 10.56 0 16 0 C16 27.39 16 54.78 16 83 C11.05 83 6.1 83 1 83 C-0.74292177 81.25707823 -0.11980303 78.99376505 -0.12442017 76.67175293 C-0.12082489 75.90858765 -0.11722961 75.14542236 -0.11352539 74.35913086 C-0.11367142 73.55919205 -0.11381744 72.75925323 -0.1139679 71.93507385 C-0.11326855 69.27830335 -0.10547518 66.62160207 -0.09765625 63.96484375 C-0.09579215 62.12781309 -0.09436821 60.29078194 -0.09336853 58.45375061 C-0.08954275 53.60890338 -0.07971196 48.76408592 -0.06866455 43.91925049 C-0.05845172 38.97937422 -0.05387119 34.03949315 -0.04882812 29.09960938 C-0.03808974 19.39972437 -0.02049246 9.69986931 0 0 Z " fill="#243137" transform="translate(437,315)"/>
<path d="M0 0 C4.95 0 9.9 0 15 0 C15 27.39 15 54.78 15 83 C10.05 83 5.1 83 0 83 C0 55.61 0 28.22 0 0 Z " fill="#202D33" transform="translate(467,315)"/>
<path d="M0 0 C5.28 0 10.56 0 16 0 C16 19.47 16 38.94 16 59 C10.72 59 5.44 59 0 59 C0 39.53 0 20.06 0 0 Z " fill="#202C34" transform="translate(409,339)"/>
<path d="M0 0 C5.35673333 2.5791679 8.53911494 6.34778736 10.75 11.875 C11.52408325 18.45470765 11.36723062 24.16346692 8 30 C4.8961706 33.42608492 1.63672864 35.69363724 -3.05078125 36.23828125 C-8.57364901 36.41951525 -11.70071475 35.79936836 -16 32 C-19.70986041 27.40167211 -20.63047204 23.78426045 -20.5 18 C-20.51546875 17.31421875 -20.5309375 16.6284375 -20.546875 15.921875 C-20.50789403 10.81536829 -19.16878539 7.93486537 -16 4 C-11.06315928 -0.46666541 -6.39116001 -1.02008743 0 0 Z " fill="#FCFAF8" transform="translate(746,350)"/>
<path d="M0 0 C0.74958984 0.00451172 1.49917969 0.00902344 2.27148438 0.01367188 C4.11852383 0.02543646 5.96552213 0.04337135 7.8125 0.0625 C7.47594834 6.56916545 6.43380425 9.44119575 1.8125 14.0625 C-2.14937575 16.04343788 -6.87948231 15.61496913 -11.1875 15.0625 C-14.55217321 12.75341054 -15.84844528 11.45262436 -16.8125 7.5 C-15.92086525 4.02262448 -14.13765107 2.9835286 -11.1875 1.0625 C-7.42449626 -0.19183458 -3.91539091 -0.04445422 0 0 Z " fill="#FAF9F8" transform="translate(678.1875,371.9375)"/>
<path d="M0 0 C2.875 1.4375 2.875 1.4375 5 4 C5.58947938 7.08086395 5.67794648 9.93229219 5 13 C3.44850344 15.12487573 2.44107194 15.86949557 -0.0859375 16.6171875 C-3.97689422 17.05541812 -6.3437463 17.28711099 -10 15.6875 C-12.58680235 13.50488552 -12.93796361 12.55832755 -13.3125 9.1875 C-12.92653707 5.25067812 -11.76603321 3.76603321 -9 1 C-5.66660588 -0.11113137 -3.49519344 -0.34951934 0 0 Z " fill="#202C33" transform="translate(421,313)"/>
<path d="M0 0 C1.23492188 -0.01417969 2.46984375 -0.02835937 3.7421875 -0.04296875 C6.86586712 0.16984545 8.52561596 0.53512774 11.125 2.1875 C7.96544583 3.76727708 4.59036183 3.37197084 1.125 3.375 C0.38765625 3.38724609 -0.3496875 3.39949219 -1.109375 3.41210938 C-3.03270058 3.41737395 -4.95554263 3.30953447 -6.875 3.1875 C-7.535 2.5275 -8.195 1.8675 -8.875 1.1875 C-5.9336446 -0.2831777 -3.27272595 0.01701001 0 0 Z " fill="#31393D" transform="translate(673.875,360.8125)"/>
<path d="M0 0 C4.62 0 9.24 0 14 0 C14.33 0.99 14.66 1.98 15 3 C10.03926578 4.32286246 5.08888488 4.08893197 0 4 C0 2.68 0 1.36 0 0 Z " fill="#2D363A" transform="translate(383,394)"/>
<path d="M0 0 C0.53625 0.721875 1.0725 1.44375 1.625 2.1875 C7.97390294 9.70593769 13.55869389 12.03986718 23 13 C23 13.33 23 13.66 23 14 C14.97980998 14.58093932 10.40307196 13.65132797 4.23828125 8.5390625 C2.5625 7 2.5625 7 0 4 C0 2.68 0 1.36 0 0 Z " fill="#0E1216" transform="translate(504,373)"/>
<path d="M0 0 C2.475 0.495 2.475 0.495 5 1 C4.34 3.64 3.68 6.28 3 9 C0.87491756 5.81237635 0.4979837 3.73487777 0 0 Z " fill="#EEEEEF" transform="translate(579,369)"/>
<path d="M0 0 C2.38672669 2.96283313 4.7353371 5.94270509 7 9 C4.13998967 7.71792641 1.92960588 6.50848764 0 4 C0 2.68 0 1.36 0 0 Z " fill="#181D23" transform="translate(504,373)"/>
</svg>
